<svg id="Capa_1" enable-background="new 0 0 512 512" height="512" viewBox="0 0 512 512" width="512" xmlns="http://www.w3.org/2000/svg"><g><g><path d="m0 434.405c0 25.684 20.814 46.59 46.6 46.59h209.4l39.504-197.28-39.504-197.28h-242.613z" fill="#ecf5ff"/><path d="m512 434.405c0 25.684-20.814 46.59-46.6 46.59h-209.4v-394.56h242.613z" fill="#d6e8fe"/><path d="m512 76.315v361.49c0-23.432-19-42.46-42.46-42.46h-35.16c-6.379 0-11.55-5.171-11.55-11.55v-340.17c0-6.97 5.65-12.62 12.62-12.62h31.24c25.024 0 45.31 20.286 45.31 45.31z" fill="#b5dbff"/><path d="m0 76.315v361.49c0-11.73 4.75-22.34 12.44-30.02 7.68-7.69 18.3-12.44 30.02-12.44h35.16c6.379 0 11.55-5.171 11.55-11.55v-340.17c0-6.97-5.65-12.62-12.62-12.62h-31.24c-25.024 0-45.31 20.286-45.31 45.31z" fill="#d6e8fe"/></g><path d="m264.265 376.67-8.265-21.63c-8.28 0-15 6.72-15 15v21.96h-91v-96.22h91v16.96c0 8.28 6.72 15 15 15l6.265-27.635v-44.105l-6.265-22.18c-8.28 0-15 6.72-15 15v16.96h-91v-96.21h91v21.96c0 8.28 6.72 15 15 15l7.265-18.933v-33.827l-7.265-14.2h-121c-8.28 0-15 6.72-15 15v252.43c0 8.28 6.72 15 15 15h121l8.265-12.559z" fill="#8c93e8"/><g fill="#7077e2"><path d="m256 327.74v-93.92c8.28 0 15 6.72 15 15v63.92c0 8.28-6.72 15-15 15z"/><path d="m392 154.57v35.91c0 8.28-6.72 15-15 15s-15-6.72-15-15v-20.91h-91v21.96c0 8.28-6.72 15-15 15v-66.96h121c8.28 0 15 6.72 15 15z"/><path d="m392 247.62v159.38c0 8.28-6.72 15-15 15h-121v-66.96c8.28 0 15 6.72 15 15v21.96h91v-96.22h-46c-8.28 0-15-6.72-15-15s6.72-15 15-15h46v-18.16c0-8.28 6.72-15 15-15s15 6.72 15 15z"/></g></g></svg>