<svg xmlns="http://www.w3.org/2000/svg" viewBox="0 0 135.467 135.467">
  <g transform="translate(45.093 73.208)">
    <path d="M86.405-20.027h-6.028a58.789 58.789 0 00-6.622-15.983l4.264-4.263a3.969 3.969 0 000-5.613L63.052-60.853a3.969 3.969 0 00-5.613 0l-4.264 4.264a58.785 58.785 0 00-15.982-6.622v-6.028a3.969 3.969 0 00-3.97-3.97H12.058a3.969 3.969 0 00-3.969 3.97v6.028a58.777 58.777 0 00-15.982 6.622l-4.264-4.264a3.969 3.969 0 00-5.613 0l-14.967 14.967a3.969 3.969 0 000 5.613l4.264 4.263a58.782 58.782 0 00-6.621 15.983h-6.029a3.969 3.969 0 00-3.969 3.969V5.108a3.969 3.969 0 003.969 3.97h6.029a58.782 58.782 0 006.621 15.982l-4.264 4.264a3.969 3.969 0 000 5.612l14.967 14.967a3.969 3.969 0 005.613 0l4.264-4.264a58.791 58.791 0 0015.982 6.622v6.029a3.969 3.969 0 003.97 3.968h21.166a3.969 3.969 0 003.969-3.968v-6.03a58.791 58.791 0 0015.982-6.62l4.264 4.263a3.969 3.969 0 005.613 0l14.967-14.967a3.969 3.969 0 000-5.612l-4.264-4.264a58.78 58.78 0 006.621-15.983h6.03a3.969 3.969 0 003.968-3.969v-21.166a3.969 3.969 0 00-3.969-3.969z" fill="#eee"/>
    <path d="M86.405-20.027h-6.028a58.789 58.789 0 00-6.622-15.983l4.264-4.263a3.969 3.969 0 000-5.613L63.052-60.853a3.969 3.969 0 00-5.613 0l-4.264 4.264a58.785 58.785 0 00-15.982-6.622v-6.028a3.969 3.969 0 00-3.97-3.97H22.642V62.259h10.583a3.969 3.969 0 003.969-3.968v-6.03a58.791 58.791 0 0015.982-6.62l4.264 4.263a3.969 3.969 0 005.613 0l14.967-14.967a3.969 3.969 0 000-5.612l-4.264-4.264a58.78 58.78 0 006.621-15.983h6.03a3.969 3.969 0 003.968-3.969v-21.166a3.969 3.969 0 00-3.969-3.969z" fill="#ccc"/>
    <circle cx="22.641" cy="-5.475" r="37.042" fill="#4ea9fd"/>
    <path d="M22.64-42.517v74.084c20.458 0 37.042-16.584 37.042-37.042 0-20.457-16.584-37.042-37.041-37.042z" fill="#0385fd"/>
    <path d="M47.776 24.924V23.63c0-13.86-11.276-25.135-25.135-25.135C8.78-1.506-2.495 9.77-2.495 23.629v1.295L21.72 33.84a3.977 3.977 0 001.843 0z" fill="#0385fd"/>
    <path d="M23.562 33.84l24.214-8.916V23.63c0-13.86-11.276-25.135-25.135-25.135v35.454c.309 0 .618-.036.921-.108z" fill="#27537d"/>
    <path d="M22.64 35.536c-22.613 0-41.01-18.398-41.01-41.01 0-22.614 18.397-41.011 41.01-41.011 22.614 0 41.011 18.397 41.011 41.01s-18.397 41.01-41.01 41.01zm0-74.084c-18.236 0-33.072 14.837-33.072 33.073 0 18.237 14.836 33.073 33.073 33.073 18.236 0 33.072-14.836 33.072-33.073 0-18.236-14.836-33.073-33.072-33.073z" fill="#fff"/>
    <path d="M55.713-5.475c0 18.237-14.836 33.073-33.072 33.073v7.938c22.613 0 41.01-18.398 41.01-41.01 0-22.614-18.397-41.011-41.01-41.011v7.937c18.236 0 33.072 14.837 33.072 33.073z" fill="#eee"/>
    <path d="M22.64 3.786c-8.753 0-15.874-7.122-15.874-15.875 0-8.754 7.121-15.875 15.875-15.875 8.753 0 15.875 7.121 15.875 15.875 0 8.753-7.122 15.875-15.875 15.875z" fill="#eee"/>
    <path d="M38.516-12.09c0-8.753-7.122-15.874-15.875-15.874v31.75c8.753 0 15.875-7.122 15.875-15.875z" fill="#ccc"/>
  </g>
</svg>