<svg xmlns="http://www.w3.org/2000/svg" viewBox="0 0 135.467 135.467">
  <path fill="#ccc" d="M119.851 135.467V47.618H80.024l-17.586 5.296 5.295 82.553z"/>
  <path fill="#eee" d="M55.443 47.618H15.616v87.849h52.117V52.914z"/>
  <path fill="#4ea9fd" d="M27.905 115.112h23.44v7.937h-23.44z"/>
  <path fill="#0385fd" d="M84.12 115.112h23.44v7.937H84.12z"/>
  <path fill="#ccc" d="M31.485 22.119l6.927-6.926v20.135h7.937V15.193l6.926 6.926 5.612-5.612L42.38 0 25.873 16.507z"/>
  <path fill="#999" d="M97.055 35.328V15.193l6.926 6.926 5.612-5.612L93.086 0 76.58 16.507l5.612 5.612 6.926-6.926v20.135z"/>
  <path fill="#27537d" d="M80.023 77.661V47.618h-12.29L62.438 62.64l5.295 15.021z"/>
  <path fill="#0385fd" d="M55.443 47.618h12.291V77.66h-12.29z"/>
</svg>