<svg xmlns="http://www.w3.org/2000/svg" viewBox="0 0 512 512">
  <path fill="#999" d="M512 374.738V93.332L256 1.127 0 93.332v323.081l256 92.205 146.667-52.826z"/>
  <path fill="#666" d="M512 375.038V93.332L256 1.127v507.491l147-52.946z"/>
  <path fill="#EEE" d="M256 1.127L0 93.332l256 98.541 256-98.541z"/>
  <g fill="#CCC">
    <path d="M256 1.127v190.746l256-98.541z"/>
    <path d="M366.553 149.319L112.738 52.726l43.537-15.682 252.473 96.033z"/>
  </g>
  <path fill="#666" d="M408.748 133.077L256 74.977v32.27l110.553 42.072z"/>
  <path fill="#4ea9fd" d="M376.165 239.203c-74.9 0-135.835 60.935-135.835 135.835 0 74.899 60.935 135.835 135.835 135.835S512 449.937 512 375.038c0-74.9-60.935-135.835-135.835-135.835z"/>
  <path fill="#0385fd" d="M376.165 239.203v271.67c74.9 0 135.835-60.935 135.835-135.835s-60.935-135.835-135.835-135.835z"/>
  <path fill="#EEE" d="M405.187 320.851l-21.213 21.213 17.751 17.751H293.18v30h108.545l-18.196 18.196 21.213 21.213 54.409-54.409z"/>
  <path fill="#CCC" d="M405.187 320.851l-21.213 21.213 17.751 17.751h-25.561v30h25.561l-18.196 18.196 21.213 21.213 54.409-54.409z"/>
</svg>