<svg
	xmlns="http://www.w3.org/2000/svg" viewBox="0 0 512 512">
	<path d="M451 15v482c0 8.28-6.72 15-15 15H76c-8.28 0-15-6.72-15-15V15c0-8.28 6.72-15 15-15h360c8.28 0 15 6.72 15 15z" fill="#EEE"/>
	<path d="M436 0H256v512h180c8.28 0 15-6.72 15-15V15c0-8.28-6.72-15-15-15z" fill="#CCC"/>
	<circle cx="256" cy="75" r="25" fill="#4ea9fd"/>
	<path d="M451 393.84V497c0 8.28-6.72 15-15 15H76c-8.28 0-15-6.72-15-15V393.84L128.89 421h254.22L451 393.84z" fill="#4ea9fd"/>
	<g fill="#CCC">
		<path d="M381 150H131c-8.284 0-15-6.716-15-15s6.716-15 15-15h250c8.284 0 15 6.716 15 15s-6.716 15-15 15zM381 210H131c-8.284 0-15-6.716-15-15s6.716-15 15-15h250c8.284 0 15 6.716 15 15s-6.716 15-15 15zM381 270H131c-8.284 0-15-6.716-15-15s6.716-15 15-15h250c8.284 0 15 6.716 15 15s-6.716 15-15 15zM231 330H131c-8.284 0-15-6.716-15-15s6.716-15 15-15h100c8.284 0 15 6.716 15 15s-6.716 15-15 15zM191 390h-60c-8.284 0-15-6.716-15-15s6.716-15 15-15h60c8.284 0 15 6.716 15 15s-6.716 15-15 15z"/>
	</g>
	<path d="M256 50.001v50c13.807 0 25-11.193 25-25s-11.193-25-25-25z" fill="#0385fd"/>
	<path d="M383.11 421H256v91h180c8.28 0 15-6.72 15-15V393.84L383.11 421z" fill="#0385fd"/>
	<g fill="#666">
		<path d="M381 120H256v30h125c8.284 0 15-6.716 15-15s-6.716-15-15-15zM381 180H256v30h125c8.284 0 15-6.716 15-15s-6.716-15-15-15zM381 240H256v30h125c8.284 0 15-6.716 15-15s-6.716-15-15-15z"/>
	</g>
</svg>