<svg
	xmlns="http://www.w3.org/2000/svg" viewBox="0 0 512 512">
	<!-- LIGHT stick -->
	<path d="M155.032 356.968c-7.894-7.894-7.894-20.691 0-28.585l86.761-86.761c7.892-7.894 20.691-7.894 28.585 0 7.894 7.894 7.894 20.691 0 28.585l-86.761 86.761c-7.891 7.893-20.691 7.894-28.585 0z" fill="#EEE"/>
	<!-- DARK stick -->
  <path d="M270.378 241.622L155.032 356.967c7.892 7.895 20.692 7.894 28.585 0l86.761-86.761c7.894-7.893 7.894-20.69 0-28.584z" fill="#CCC"/>
  <!-- LIGHT HANDLE -->
	<g fill="#4ea9fd">
		<path d="M21.624 490.376c-28.829-28.827-28.833-75.492 0-104.325l95.538-95.538c7.89-7.89 20.692-7.892 28.585 0l75.74 75.74c7.89 7.89 7.892 20.692 0 28.585l-95.539 95.538c-28.827 28.831-75.492 28.835-104.324 0zM235.768 351.972l-75.74-75.74c-7.894-7.894-7.894-20.691 0-28.585 7.892-7.894 20.691-7.894 28.585 0l75.74 75.74c7.894 7.894 7.894 20.691 0 28.585-7.892 7.893-20.691 7.895-28.585 0z"/>
	</g>
  
  <!-- LIGHT STRUCTURE -->
	<path d="M241.793 270.207c-61.878-61.877-61.883-162.025 0-223.908 61.731-61.732 162.176-61.732 223.908 0 61.732 61.731 61.732 162.176 0 223.908-61.876 61.876-162.026 61.883-223.908 0z" 
  fill="#0385fd"/>
  <!-- DARK STRUCTURE -->
	<path d="M465.701 46.299L241.793 270.207c61.882 61.883 162.032 61.877 223.908 0 61.732-61.731 61.732-162.177 0-223.908z" fill="#27537d"/>
	<!-- LIGHT GLASS -->
  <path d="M296.059 215.942c-31.81-31.808-31.81-83.566 0-115.377 31.81-31.81 83.568-31.811 115.377 0 31.809 31.81 31.809 83.568 0 115.377-31.808 31.808-83.568 31.811-115.377 0z" 
  fill="#EEE"/>
  <!-- DARK HANDLE -->
	<g fill="#0385fd">
		<path d="M221.487 366.253l-37.871-37.871L21.624 490.376c28.833 28.834 75.497 28.83 104.325 0l95.539-95.539c7.892-7.892 7.888-20.695-.001-28.584zM264.353 323.387l-37.871-37.871-28.585 28.585 37.871 37.871c7.894 7.895 20.692 7.894 28.585 0 7.894-7.894 7.894-20.692 0-28.585z"/>
	</g>

  <!-- DARK GLASS  -->
	<path d="M411.435 100.565L296.058 215.941c31.809 31.811 83.569 31.808 115.377 0 31.809-31.808 31.809-83.566 0-115.376z" fill="#CCC"/>
</svg>