<svg viewBox="0 0 512 512"
	xmlns="http://www.w3.org/2000/svg">
	<path d="M296 512h-80a15.002 15.002 0 01-13.977-9.554L189.7 470.818a223.825 223.825 0 01-38.769-16.017l-31.028 13.629a15 15 0 01-16.639-3.127l-56.568-56.568a15 15 0 01-3.127-16.639l13.629-31.028a223.825 223.825 0 01-16.017-38.769L9.554 309.977A15.002 15.002 0 010 296v-80a15.002 15.002 0 019.554-13.977L41.182 189.7a223.825 223.825 0 0116.017-38.769L43.57 119.904a14.999 14.999 0 013.127-16.639l56.568-56.569a15 15 0 0116.639-3.127l31.028 13.629a223.825 223.825 0 0138.769-16.017l12.323-31.627A14.998 14.998 0 01216 0h80a15 15 0 0113.977 9.554L322.3 41.181a223.858 223.858 0 0138.769 16.017l31.028-13.629a15 15 0 0116.639 3.127l56.569 56.569a15 15 0 013.127 16.639l-13.629 31.028a223.825 223.825 0 0116.017 38.769l31.628 12.323A15 15 0 01512 216v80a15.002 15.002 0 01-9.554 13.977L470.818 322.3a223.858 223.858 0 01-16.017 38.769l13.629 31.028a14.999 14.999 0 01-3.127 16.639l-56.569 56.568a15 15 0 01-16.639 3.127l-31.028-13.629a223.871 223.871 0 01-38.769 16.017l-12.323 31.628A14.997 14.997 0 01296 512z" 
  fill="#EEE"/>
	<path d="M502.446 202.023L470.818 189.7a223.825 223.825 0 00-16.017-38.769l13.629-31.028a14.999 14.999 0 00-3.127-16.639l-56.569-56.569a15 15 0 00-16.639-3.127l-31.028 13.629a223.825 223.825 0 00-38.769-16.017L309.977 9.554A15 15 0 00296 0h-40v512h40a15 15 0 0013.977-9.554l12.323-31.628a223.825 223.825 0 0038.769-16.017l31.028 13.629a15 15 0 0016.639-3.127l56.569-56.568a15 15 0 003.127-16.639l-13.629-31.028a223.825 223.825 0 0016.017-38.769l31.628-12.323A15 15 0 00512 296v-80a15.002 15.002 0 00-9.554-13.977z" 
  fill="#CCC"/>
	<path d="M221 406V301h-55c-10.12 0-17.336-9.815-14.317-19.474l50-160A15 15 0 01216 111h90c10.612 0 17.868 10.718 13.927 20.571L288.155 211H346c11.714 0 18.907 12.826 12.799 22.822l-110 180C240.9 426.749 221 421.149 221 406z"
   fill="#4ea9fd"/>
	<path d="M346 211h-57.845l31.772-79.429C323.868 121.718 316.612 111 306 111h-50v291.039l102.799-168.217C364.908 223.826 357.714 211 346 211z"
   fill="#0385fd"/>
</svg>