<svg xmlns="http://www.w3.org/2000/svg" viewBox="0 0 135.467 135.467">
  <path d="M0 20.108v95.25h135.467v-95.25z" fill="#eee"/>
  <path fill="#ccc" d="M67.733 20.108h67.733v95.25H67.733z"/>
  <g fill="#27537d">
    <path d="M79.64 87.577h39.952v7.938H79.64zM79.64 71.702h39.952v7.938H79.64zM79.64 55.827h39.952v7.938H79.64zM79.64 39.952h24.077v7.938H79.64zM111.654 39.952h7.938v7.938h-7.938z"/>
  </g>
  <g fill="#4ea9fd">
    <path d="M49.968 55.827c0 8.731-7.144 15.875-15.875 15.875-8.73 0-15.875-7.144-15.875-15.875s7.144-15.875 15.875-15.875 15.875 7.144 15.875 15.875zM57.906 95.515H10.281c0-13.098 10.715-23.813 23.812-23.813 13.098 0 23.813 10.715 23.813 23.813z"/>
  </g>
  <g fill="#0385fd">
    <path d="M49.968 55.827c0 8.731-7.144 15.875-15.875 15.875v-31.75c8.731 0 15.875 7.144 15.875 15.875zM57.906 95.515H34.093V71.702c13.098 0 23.813 10.715 23.813 23.813z"/>
  </g>
</svg>