<svg height="512" viewBox="0 0 24 24" width="512"
	xmlns="http://www.w3.org/2000/svg">
	<path d="M21.25 22H2.75A2.752 2.752 0 010 19.25v-5.5A2.752 2.752 0 012.75 11h18.5A2.752 2.752 0 0124 13.75v5.5A2.752 2.752 0 0121.25 22z" fill="#666"/>
	<path d="M6.75 18a.75.75 0 010-1.5 2.752 2.752 0 002.75-2.75V9H6.75c-.656 0-.998-.791-.543-1.268l5.25-5.5a.775.775 0 011.086 0l5.25 5.5c.455.477.113 1.268-.543 1.268H14.5v1.25c0 4.273-3.477 7.75-7.75 7.75z" fill="#CCC"/>
	<path d="M9.5 11H2.75A2.752 2.752 0 000 13.75v5.5A2.752 2.752 0 002.75 22H12v-6.054A7.718 7.718 0 016.75 18a.75.75 0 010-1.5 2.752 2.752 0 002.75-2.75z" fill="#999"/>
	<path d="M12 2.01a.75.75 0 00-.543.222l-5.25 5.5C5.752 8.209 6.094 9 6.75 9H9.5v4.75a2.752 2.752 0 01-2.75 2.75.75.75 0 000 1.5A7.718 7.718 0 0012 15.946z" fill="#EEE"/>
</svg>