<svg height="512" viewBox="0 0 511.023 511.023" width="512"
	xmlns="http://www.w3.org/2000/svg">
	<path d="M28.017 494.383C12.544 494.383 0 481.84 0 466.366V141.742h176.227l48.823 38.303h197.033v56.034C281.693 357.108 190.765 494.383 28.017 494.383z" fill="#666"/>
	<path d="M123.159 236.079L59.162 472.23c-3.543 13.075-15.409 22.153-28.956 22.153h219.985l66.373-144.124 3.627-114.18z" fill="#eee"/>
	<path d="M313.067 236.079l-70 258.304h174.081c13.546 0 25.412-9.078 28.956-22.153L510.1 236.079z" fill="#CCC"/>
	<g>
		<path d="M255.498 448.504H151.836l8.197-30h103.662l17.582 15z" fill="#CCC"/>
		<path d="M359.161 448.504H255.498l8.132-30h103.728z" fill="#999"/>
	</g>
	<path d="M492.621 88.172l-23.258 18.065c-7.94-50.692-51.907-89.596-104.793-89.596-58.49 0-106.075 47.585-106.075 106.075h30c0-41.948 34.127-76.075 76.075-76.075 35.231 0 64.936 24.077 73.549 56.638L418.67 88.172l-18.402 23.691 55.378 43.016 55.378-43.016z" 
  fill="#EEE"/>
</svg>