<svg xmlns="http://www.w3.org/2000/svg" viewBox="0 0 113.022 135.467"><path d="M88.284 32.625c0 8.966-3.215 16.727-9.558 23.07-6.343 6.344-14.105 9.559-23.07 9.559h-.016c-8.954-.003-16.711-3.219-23.054-9.558-6.344-6.344-9.558-14.105-9.558-23.07 0-8.963 3.214-16.725 9.558-23.068C38.926 3.218 46.682.003 55.64 0h.016c8.962 0 16.724 3.215 23.07 9.558 6.343 6.343 9.558 14.105 9.558 23.067zm0 0" fill="#eee"/><path d="M113.022 112.169c0 7.073-2.25 12.8-6.682 17.018-4.38 4.168-10.173 6.28-17.217 6.28H23.895c-7.043 0-12.836-2.112-17.213-6.28C2.247 124.966 0 119.24 0 112.169c0-2.72.09-5.412.27-8 .183-2.645.553-5.525 1.098-8.562.55-3.063 1.257-5.958 2.104-8.604a42.675 42.675 0 013.537-8.028c1.528-2.686 3.322-5.026 5.333-6.953 2.109-2.016 4.686-3.635 7.666-4.816 2.97-1.174 6.261-1.77 9.783-1.77 1.382 0 2.72.566 5.3 2.247a718.462 718.462 0 005.529 3.564c1.773 1.131 4.175 2.191 7.145 3.15 2.61.844 5.258 1.315 7.875 1.397.288.01.577.015.865.015 2.906 0 5.846-.476 8.744-1.413 2.97-.958 5.374-2.018 7.147-3.149a710.401 710.401 0 005.526-3.561c2.582-1.684 3.918-2.25 5.303-2.25 3.52 0 6.81.596 9.782 1.77 2.98 1.18 5.558 2.803 7.664 4.816 2.014 1.927 3.808 4.267 5.335 6.953A42.529 42.529 0 01109.544 87c.847 2.65 1.556 5.544 2.106 8.609.543 3.04.914 5.92 1.096 8.558.183 2.58.272 5.271.276 8.002zm0 0" fill="#4ea9fd"/><path d="M55.656 65.254h-.016V0h.016c8.962 0 16.724 3.215 23.07 9.558 6.343 6.343 9.558 14.105 9.558 23.067 0 8.966-3.215 16.727-9.558 23.07-6.343 6.344-14.105 9.559-23.07 9.559zm0 0" fill="#ccc"/><path d="M113.022 112.169c0 7.073-2.25 12.8-6.682 17.018-4.38 4.168-10.173 6.28-17.217 6.28H55.64V75.794c.288.01.577.015.865.015 2.906 0 5.846-.476 8.744-1.413 2.97-.958 5.374-2.018 7.147-3.149a710.401 710.401 0 005.526-3.561c2.582-1.684 3.918-2.25 5.303-2.25 3.52 0 6.81.596 9.782 1.77 2.98 1.18 5.558 2.803 7.664 4.816 2.014 1.927 3.808 4.267 5.335 6.953A42.529 42.529 0 01109.544 87c.847 2.65 1.556 5.544 2.106 8.609.543 3.04.914 5.92 1.096 8.558.183 2.58.272 5.271.276 8.002zm0 0" fill="#0385fd"/></svg>